<svg xmlns="http://www.w3.org/2000/svg" xmlns:xlink="http://www.w3.org/1999/xlink" width="70" zoomAndPan="magnify" viewBox="0 0 52.5 52.499999" height="70" preserveAspectRatio="xMidYMid meet" version="1.0"><defs><clipPath id="d00ad879a5"><path d="M 5.199219 7.957031 L 47.546875 7.957031 L 47.546875 39 L 5.199219 39 Z M 5.199219 7.957031 " clip-rule="nonzero"/></clipPath><clipPath id="6b6e1e41b7"><path d="M 5.199219 35 L 47.546875 35 L 47.546875 39 L 5.199219 39 Z M 5.199219 35 " clip-rule="nonzero"/></clipPath><clipPath id="7738024a57"><path d="M 14 43 L 39 43 L 39 44.363281 L 14 44.363281 Z M 14 43 " clip-rule="nonzero"/></clipPath><clipPath id="49a7f3735a"><path d="M 19 38 L 34 38 L 34 44.363281 L 19 44.363281 Z M 19 38 " clip-rule="nonzero"/></clipPath><clipPath id="99ce43fdbc"><path d="M 5.199219 10 L 47.546875 10 L 47.546875 12 L 5.199219 12 Z M 5.199219 10 " clip-rule="nonzero"/></clipPath></defs><g clip-path="url(#d00ad879a5)"><path fill="#000000" d="M 8.722656 7.976562 L 44.019531 7.976562 C 45.957031 7.976562 47.539062 9.570312 47.539062 11.523438 L 47.539062 35.347656 C 47.539062 37.300781 45.949219 38.894531 44.019531 38.894531 L 8.722656 38.894531 C 6.78125 38.894531 5.199219 37.292969 5.199219 35.347656 L 5.199219 11.53125 C 5.199219 9.578125 6.789062 7.976562 8.722656 7.976562 Z M 44.027344 8.679688 L 8.722656 8.679688 C 7.164062 8.679688 5.894531 9.964844 5.894531 11.53125 L 5.894531 35.359375 C 5.894531 36.925781 7.164062 38.203125 8.722656 38.203125 L 44.019531 38.203125 C 45.574219 38.203125 46.84375 36.925781 46.84375 35.359375 L 46.84375 11.53125 C 46.851562 9.964844 45.582031 8.679688 44.027344 8.679688 Z M 44.027344 8.679688 " fill-opacity="1" fill-rule="evenodd"/></g><g clip-path="url(#6b6e1e41b7)"><path fill="#000000" d="M 5.546875 35.007812 L 47.199219 35.007812 C 47.390625 35.007812 47.546875 35.164062 47.546875 35.359375 C 47.546875 37.308594 45.957031 38.902344 44.027344 38.902344 L 8.722656 38.902344 C 6.78125 38.902344 5.199219 37.300781 5.199219 35.359375 C 5.199219 35.164062 5.359375 35.007812 5.546875 35.007812 Z M 46.828125 35.707031 L 5.921875 35.707031 C 6.09375 37.117188 7.296875 38.203125 8.730469 38.203125 L 44.027344 38.203125 C 45.460938 38.203125 46.652344 37.117188 46.828125 35.707031 Z M 46.828125 35.707031 " fill-opacity="1" fill-rule="evenodd"/></g><g clip-path="url(#7738024a57)"><path fill="#000000" d="M 14.917969 44.308594 C 14.46875 44.316406 14.460938 43.601562 14.917969 43.609375 L 37.78125 43.609375 C 38.226562 43.601562 38.234375 44.316406 37.78125 44.308594 Z M 14.917969 44.308594 " fill-opacity="1" fill-rule="evenodd"/></g><g clip-path="url(#49a7f3735a)"><path fill="#000000" d="M 31.394531 38.902344 L 21.355469 38.902344 L 20.054688 43.609375 L 32.703125 43.609375 Z M 21.089844 38.203125 L 31.652344 38.203125 C 31.800781 38.203125 31.941406 38.300781 31.980469 38.460938 L 33.472656 43.839844 C 33.554688 44.058594 33.390625 44.316406 33.148438 44.316406 C 33.058594 44.300781 19.582031 44.34375 19.5 44.300781 C 19.316406 44.25 19.207031 44.058594 19.257812 43.875 L 20.75 38.496094 C 20.78125 38.328125 20.921875 38.203125 21.089844 38.203125 Z M 21.089844 38.203125 " fill-opacity="1" fill-rule="evenodd"/></g><path fill="#000000" d="M 12.566406 31.460938 C 13.011719 31.453125 13.011719 32.171875 12.566406 32.164062 L 10.453125 32.164062 C 10.261719 32.164062 10.105469 32.003906 10.105469 31.8125 C 10.105469 31.621094 10.261719 31.460938 10.453125 31.460938 Z M 10.453125 29.152344 C 10.003906 29.160156 10.003906 28.441406 10.453125 28.449219 L 15.984375 28.449219 C 16.433594 28.441406 16.441406 29.160156 15.984375 29.152344 Z M 18.488281 29.152344 C 18.039062 29.160156 18.039062 28.441406 18.488281 28.449219 L 22.71875 28.449219 C 23.167969 28.441406 23.167969 29.160156 22.71875 29.152344 Z M 20.320312 31.460938 C 20.765625 31.453125 20.765625 32.171875 20.320312 32.164062 L 14.785156 32.164062 C 14.335938 32.171875 14.328125 31.453125 14.785156 31.460938 Z M 20.320312 31.460938 " fill-opacity="1" fill-rule="evenodd"/><g clip-path="url(#99ce43fdbc)"><path fill="#000000" d="M 5.546875 10.832031 C 5.316406 10.832031 5.324219 11.191406 5.546875 11.179688 C 5.648438 11.179688 5.828125 11.207031 5.871094 11.097656 C 5.980469 10.863281 5.722656 10.804688 5.546875 10.832031 Z M 47.199219 11.179688 C 47.429688 11.179688 47.421875 10.824219 47.199219 10.832031 C 47.109375 10.832031 46.925781 10.8125 46.882812 10.914062 C 46.777344 11.148438 47.023438 11.207031 47.199219 11.179688 Z M 45.292969 11.179688 C 45.527344 11.179688 45.519531 10.824219 45.292969 10.832031 L 44.945312 10.832031 C 44.714844 10.832031 44.722656 11.191406 44.945312 11.179688 Z M 43.214844 11.179688 C 43.445312 11.179688 43.4375 10.824219 43.214844 10.832031 L 42.867188 10.832031 C 42.636719 10.832031 42.644531 11.191406 42.867188 11.179688 Z M 41.128906 11.179688 C 41.359375 11.179688 41.351562 10.824219 41.128906 10.832031 L 40.78125 10.832031 C 40.546875 10.832031 40.554688 11.191406 40.78125 11.179688 Z M 39.046875 11.179688 C 39.28125 11.179688 39.273438 10.824219 39.046875 10.832031 L 38.699219 10.832031 C 38.46875 10.832031 38.476562 11.191406 38.699219 11.179688 Z M 36.960938 11.179688 C 37.191406 11.179688 37.183594 10.824219 36.960938 10.832031 L 36.613281 10.832031 C 36.378906 10.832031 36.390625 11.191406 36.613281 11.179688 Z M 34.882812 11.179688 C 35.113281 11.179688 35.105469 10.824219 34.882812 10.832031 L 34.535156 10.832031 C 34.300781 10.832031 34.308594 11.191406 34.535156 11.179688 Z M 32.800781 11.179688 C 33.035156 11.179688 33.027344 10.824219 32.800781 10.832031 L 32.453125 10.832031 C 32.222656 10.832031 32.230469 11.191406 32.453125 11.179688 Z M 30.714844 11.179688 C 30.945312 11.179688 30.9375 10.824219 30.714844 10.832031 L 30.367188 10.832031 C 30.132812 10.832031 30.144531 11.191406 30.367188 11.179688 Z M 28.636719 11.179688 C 28.867188 11.179688 28.859375 10.824219 28.636719 10.832031 L 28.289062 10.832031 C 28.054688 10.832031 28.0625 11.191406 28.289062 11.179688 Z M 26.546875 11.179688 C 26.78125 11.179688 26.769531 10.824219 26.546875 10.832031 L 26.199219 10.832031 C 25.96875 10.832031 25.976562 11.191406 26.199219 11.179688 Z M 24.46875 11.179688 C 24.699219 11.179688 24.691406 10.824219 24.46875 10.832031 L 24.121094 10.832031 C 23.890625 10.832031 23.898438 11.191406 24.121094 11.179688 Z M 22.382812 11.179688 C 22.613281 11.179688 22.605469 10.824219 22.382812 10.832031 L 22.03125 10.832031 C 21.800781 10.832031 21.808594 11.191406 22.03125 11.179688 Z M 20.300781 11.179688 C 20.535156 11.179688 20.527344 10.824219 20.300781 10.832031 L 19.953125 10.832031 C 19.722656 10.832031 19.730469 11.191406 19.953125 11.179688 Z M 18.222656 11.179688 C 18.453125 11.179688 18.445312 10.824219 18.222656 10.832031 L 17.875 10.832031 C 17.644531 10.832031 17.652344 11.191406 17.875 11.179688 Z M 16.136719 11.179688 C 16.367188 11.179688 16.359375 10.824219 16.136719 10.832031 L 15.789062 10.832031 C 15.554688 10.832031 15.5625 11.191406 15.789062 11.179688 Z M 14.054688 11.179688 C 14.289062 11.179688 14.28125 10.824219 14.054688 10.832031 L 13.707031 10.832031 C 13.476562 10.832031 13.484375 11.191406 13.707031 11.179688 Z M 11.96875 11.179688 C 12.199219 11.179688 12.191406 10.824219 11.96875 10.832031 L 11.621094 10.832031 C 11.386719 10.832031 11.398438 11.191406 11.621094 11.179688 Z M 9.890625 11.179688 C 10.121094 11.179688 10.113281 10.824219 9.890625 10.832031 L 9.542969 10.832031 C 9.308594 10.832031 9.316406 11.191406 9.542969 11.179688 Z M 7.808594 11.179688 C 8.042969 11.179688 8.035156 10.824219 7.808594 10.832031 L 7.460938 10.832031 C 7.230469 10.832031 7.238281 11.191406 7.460938 11.179688 Z M 7.808594 11.179688 " fill-opacity="1" fill-rule="evenodd"/></g><path fill="#000000" d="M 19.671875 22.753906 C 16.492188 25.980469 11.097656 22.359375 12.847656 18.164062 C 13.292969 17.070312 14.1875 16.210938 15.289062 15.8125 C 15.546875 15.71875 15.703125 15.496094 15.703125 15.210938 C 15.929688 12.917969 13.269531 14.808594 12.53125 15.570312 C 8.007812 20.089844 13.078125 27.742188 18.960938 25.273438 C 20.261719 25.105469 24.269531 20.589844 21.230469 20.792969 C 20.949219 20.792969 20.714844 20.957031 20.632812 21.226562 C 20.433594 21.800781 20.09375 22.316406 19.671875 22.753906 Z M 18.046875 23.019531 C 18.710938 22.742188 19.28125 22.261719 19.664062 21.652344 C 19.960938 21.226562 20.027344 20.617188 20.484375 20.324219 C 21.246094 19.832031 22.851562 19.964844 23.042969 21.207031 C 21.601562 28.890625 10.164062 27.648438 10.121094 19.773438 C 10.113281 17.464844 11.339844 15.292969 13.269531 14.109375 C 14.335938 13.34375 16.269531 12.875 16.410156 14.726562 C 16.417969 15.144531 16.433594 15.652344 16.167969 15.988281 C 15.6875 16.605469 14.75 16.652344 14.246094 17.296875 C 11.554688 19.90625 14.609375 24.511719 18.046875 23.019531 Z M 18.046875 23.019531 " fill-opacity="1" fill-rule="evenodd"/><path fill="#000000" d="M 19.671875 16.789062 C 20.261719 17.269531 20.425781 18.070312 20.882812 18.640625 C 21.070312 18.804688 21.503906 18.738281 21.734375 18.746094 C 24.292969 18.289062 18.179688 12.132812 17.726562 14.710938 C 17.742188 14.945312 17.675781 15.378906 17.832031 15.570312 C 18.386719 16.027344 19.191406 16.195312 19.671875 16.789062 Z M 19.664062 17.886719 C 19.175781 16.871094 17.964844 16.703125 17.261719 15.976562 C 16.996094 15.644531 17.011719 15.128906 17.019531 14.71875 C 17.617188 11.597656 21.542969 14.769531 22.339844 16.296875 C 23.101562 17.339844 23.550781 19.339844 21.726562 19.457031 C 21.320312 19.464844 20.808594 19.480469 20.476562 19.214844 C 20.019531 18.921875 19.960938 18.3125 19.664062 17.886719 Z M 19.664062 17.886719 " fill-opacity="1" fill-rule="evenodd"/><path fill="#000000" d="M 40.613281 31.460938 L 42.644531 31.460938 C 42.917969 31.460938 43.140625 31.238281 43.140625 30.960938 C 43.066406 30.785156 43.3125 24.804688 42.992188 24.894531 C 42.832031 24.605469 40.878906 24.804688 40.613281 24.746094 C 40.339844 24.746094 40.117188 24.972656 40.117188 25.246094 L 40.117188 30.953125 C 40.109375 31.238281 40.332031 31.460938 40.613281 31.460938 Z M 42.636719 32.164062 C 41.597656 32.078125 39.4375 32.613281 39.414062 30.960938 L 39.414062 25.253906 C 39.445312 23.59375 41.589844 24.136719 42.636719 24.054688 C 43.289062 24.054688 43.828125 24.597656 43.828125 25.253906 L 43.828125 30.960938 C 43.835938 31.621094 43.296875 32.164062 42.636719 32.164062 Z M 42.636719 32.164062 " fill-opacity="1" fill-rule="evenodd"/><path fill="#000000" d="M 33.996094 31.460938 L 36.023438 31.460938 C 36.296875 31.460938 36.519531 31.238281 36.519531 30.960938 L 36.519531 22.660156 C 36.519531 22.386719 36.296875 22.160156 36.023438 22.160156 L 33.996094 22.160156 C 33.722656 22.160156 33.496094 22.386719 33.496094 22.660156 L 33.496094 30.960938 C 33.488281 31.238281 33.714844 31.460938 33.996094 31.460938 Z M 36.015625 32.164062 C 34.980469 32.078125 32.820312 32.613281 32.792969 30.960938 L 32.792969 22.660156 C 32.792969 22.328125 32.925781 22.027344 33.140625 21.808594 C 33.582031 21.199219 35.394531 21.535156 36.015625 21.460938 C 36.671875 21.460938 37.210938 22 37.210938 22.660156 L 37.210938 30.960938 C 37.21875 31.621094 36.679688 32.164062 36.015625 32.164062 Z M 36.015625 32.164062 " fill-opacity="1" fill-rule="evenodd"/><path fill="#000000" d="M 27.375 31.460938 L 29.40625 31.460938 C 29.679688 31.460938 29.902344 31.238281 29.902344 30.960938 L 29.902344 26.921875 C 29.902344 26.648438 29.679688 26.421875 29.40625 26.421875 C 29.132812 26.472656 27.195312 26.28125 27.027344 26.574219 C 26.738281 26.480469 26.9375 30.828125 26.878906 30.960938 C 26.871094 31.238281 27.09375 31.460938 27.375 31.460938 Z M 29.398438 32.164062 C 28.363281 32.078125 26.199219 32.613281 26.175781 30.960938 L 26.175781 26.921875 C 26.175781 26.265625 26.714844 25.722656 27.367188 25.722656 C 27.996094 25.804688 29.785156 25.472656 30.242188 26.074219 C 30.457031 26.289062 30.589844 26.589844 30.589844 26.921875 L 30.589844 30.960938 C 30.589844 31.621094 30.058594 32.164062 29.398438 32.164062 Z M 29.398438 32.164062 " fill-opacity="1" fill-rule="evenodd"/><path fill="#000000" d="M 30.078125 19.773438 C 29.738281 20.066406 29.289062 19.515625 29.636719 19.230469 L 33.308594 16.238281 C 33.648438 15.945312 34.09375 16.496094 33.746094 16.777344 Z M 36.554688 16.460938 C 36.148438 16.269531 36.457031 15.636719 36.859375 15.835938 L 40.074219 17.429688 C 40.25 17.511719 40.316406 17.722656 40.234375 17.898438 C 40.148438 18.070312 39.941406 18.140625 39.769531 18.054688 Z M 36.554688 16.460938 " fill-opacity="1" fill-rule="evenodd"/><path fill="#000000" d="M 28.386719 18.449219 C 31.335938 18.496094 31.335938 22.910156 28.386719 22.96875 C 25.4375 22.910156 25.4375 18.496094 28.386719 18.449219 Z M 29.480469 19.597656 C 28.046875 18.164062 25.859375 20.359375 27.292969 21.800781 C 28.726562 23.246094 30.90625 21.050781 29.480469 19.597656 Z M 29.480469 19.597656 " fill-opacity="1" fill-rule="evenodd"/><path fill="#000000" d="M 35.003906 13.050781 C 37.953125 13.101562 37.953125 17.511719 35.003906 17.570312 C 32.054688 17.511719 32.054688 13.101562 35.003906 13.050781 Z M 36.097656 14.203125 C 34.664062 12.765625 32.480469 14.960938 33.910156 16.402344 C 35.34375 17.847656 37.523438 15.644531 36.097656 14.203125 Z M 36.097656 14.203125 " fill-opacity="1" fill-rule="evenodd"/><path fill="#000000" d="M 41.625 16.328125 C 44.574219 16.378906 44.574219 20.792969 41.625 20.851562 C 38.675781 20.792969 38.683594 16.378906 41.625 16.328125 Z M 42.71875 17.480469 C 41.285156 16.042969 39.097656 18.238281 40.53125 19.683594 C 41.964844 21.125 44.140625 18.929688 42.71875 17.480469 Z M 42.71875 17.480469 " fill-opacity="1" fill-rule="evenodd"/></svg>