<svg xmlns="http://www.w3.org/2000/svg" xmlns:xlink="http://www.w3.org/1999/xlink" width="70" zoomAndPan="magnify" viewBox="0 0 52.5 52.499999" height="70" preserveAspectRatio="xMidYMid meet" version="1.0"><defs><clipPath id="34262eac0a"><path d="M 10.113281 3.863281 L 42.058594 3.863281 L 42.058594 46.953125 L 10.113281 46.953125 Z M 10.113281 3.863281 " clip-rule="nonzero"/></clipPath><clipPath id="b00fe399b9"><path d="M 23 21 L 25 21 L 25 46.953125 L 23 46.953125 Z M 23 21 " clip-rule="nonzero"/></clipPath><clipPath id="9bab369417"><path d="M 27 21 L 29 21 L 29 46.953125 L 27 46.953125 Z M 27 21 " clip-rule="nonzero"/></clipPath><clipPath id="ce51425caf"><path d="M 10.113281 3.863281 L 42.058594 3.863281 L 42.058594 38 L 10.113281 38 Z M 10.113281 3.863281 " clip-rule="nonzero"/></clipPath><clipPath id="84f5b16eb9"><path d="M 10.113281 16 L 15 16 L 15 22 L 10.113281 22 Z M 10.113281 16 " clip-rule="nonzero"/></clipPath><clipPath id="c1ed41c42a"><path d="M 37 16 L 42.058594 16 L 42.058594 22 L 37 22 Z M 37 16 " clip-rule="nonzero"/></clipPath><clipPath id="b967c88fb0"><path d="M 36 3.863281 L 42 3.863281 L 42 9 L 36 9 Z M 36 3.863281 " clip-rule="nonzero"/></clipPath><clipPath id="02c6a6170b"><path d="M 11 3.863281 L 16 3.863281 L 16 9 L 11 9 Z M 11 3.863281 " clip-rule="nonzero"/></clipPath></defs><g clip-path="url(#34262eac0a)"><path stroke-linecap="butt" transform="matrix(0.351867, 0, 0, 0.351179, 3.198126, 2.704319)" fill="none" stroke-linejoin="miter" d="M 81.454863 124.009772 L 49.005157 124.009772 L 49.005157 55.879834 L 65.735128 14.356723 L 81.454863 55.879834 Z M 81.454863 124.009772 " stroke="#000000" stroke-width="4" stroke-opacity="1" stroke-miterlimit="10"/></g><path stroke-linecap="butt" transform="matrix(0.351867, 0, 0, 0.351179, 3.198126, 2.704319)" fill="none" stroke-linejoin="miter" d="M 48.849736 55.879834 L 80.69996 55.879834 " stroke="#000000" stroke-width="4" stroke-opacity="1" stroke-miterlimit="10"/><g clip-path="url(#b00fe399b9)"><path stroke-linecap="butt" transform="matrix(0.351867, 0, 0, 0.351179, 3.198126, 2.704319)" fill="none" stroke-linejoin="miter" d="M 59.729213 55.479397 L 59.729213 123.809553 " stroke="#000000" stroke-width="4" stroke-opacity="1" stroke-miterlimit="10"/></g><g clip-path="url(#9bab369417)"><path stroke-linecap="butt" transform="matrix(0.351867, 0, 0, 0.351179, 3.198126, 2.704319)" fill="none" stroke-linejoin="miter" d="M 70.819619 55.879834 L 70.819619 124.009772 " stroke="#000000" stroke-width="4" stroke-opacity="1" stroke-miterlimit="10"/></g><g clip-path="url(#ce51425caf)"><path stroke-linecap="butt" transform="matrix(0.351867, 0, 0, 0.351179, 3.198126, 2.704319)" fill="none" stroke-linejoin="miter" d="M 27.73467 41.286124 C 28.212034 39.161582 28.855922 37.081533 29.677433 35.057101 C 30.510046 33.032669 31.486979 31.097222 32.641536 29.239639 C 33.796093 27.382055 35.094969 25.635704 36.538165 24.000585 C 37.992462 22.365467 39.557775 20.863827 41.267407 19.495667 C 42.965937 18.127507 44.764382 16.915072 46.673841 15.847239 C 48.5833 14.779407 50.559368 13.889547 52.624249 13.155412 C 54.678027 12.4324 56.787314 11.876237 58.941006 11.50917 C 61.083597 11.130979 63.259492 10.941884 65.435388 10.941884 C 67.622385 10.930761 69.787179 11.108733 71.940871 11.4758 C 74.094563 11.831744 76.20385 12.376784 78.26873 13.099795 C 80.33361 13.811684 82.32078 14.701544 84.230239 15.758253 C 86.139699 16.803839 87.949244 18.016274 89.658876 19.373311 C 91.368508 20.741472 92.944922 22.231988 94.39922 23.855983 C 95.853517 25.491102 97.163495 27.226329 98.329153 29.07279 C 99.48371 30.930373 100.482846 32.854696 101.315459 34.879129 C 102.148072 36.892438 102.803061 38.972487 103.291527 41.097028 " stroke="#000000" stroke-width="4" stroke-opacity="1" stroke-miterlimit="10"/></g><g clip-path="url(#84f5b16eb9)"><path stroke-linecap="butt" transform="matrix(0.351867, 0, 0, 0.351179, 3.198126, 2.704319)" fill="none" stroke-linejoin="miter" d="M 21.739856 41.475219 L 31.42037 41.475219 L 31.42037 51.163574 L 21.739856 51.163574 Z M 21.739856 41.475219 " stroke="#000000" stroke-width="4" stroke-opacity="1" stroke-miterlimit="10"/></g><g clip-path="url(#c1ed41c42a)"><path stroke-linecap="butt" transform="matrix(0.351867, 0, 0, 0.351179, 3.198126, 2.704319)" fill="none" stroke-linejoin="miter" d="M 98.739909 41.475219 L 108.420423 41.475219 L 108.420423 51.163574 L 98.739909 51.163574 Z M 98.739909 41.475219 " stroke="#000000" stroke-width="4" stroke-opacity="1" stroke-miterlimit="10"/></g><path stroke-linecap="butt" transform="matrix(0.351867, 0, 0, 0.351179, 3.198126, 2.704319)" fill="none" stroke-linejoin="miter" d="M 34.795228 10.185503 L 96.475202 10.185503 " stroke="#000000" stroke-width="4" stroke-opacity="1" stroke-miterlimit="10"/><g clip-path="url(#b967c88fb0)"><path stroke-linecap="butt" transform="matrix(0.351867, 0, 0, 0.351179, 3.198126, 2.704319)" fill="none" stroke-linejoin="miter" d="M 95.864619 5.346887 L 105.545133 5.346887 L 105.545133 15.035242 L 95.864619 15.035242 Z M 95.864619 5.346887 " stroke="#000000" stroke-width="4" stroke-opacity="1" stroke-miterlimit="10"/></g><g clip-path="url(#02c6a6170b)"><path stroke-linecap="butt" transform="matrix(0.351867, 0, 0, 0.351179, 3.198126, 2.704319)" fill="none" stroke-linejoin="miter" d="M 24.515233 5.346887 L 34.184645 5.346887 L 34.184645 15.035242 L 24.515233 15.035242 Z M 24.515233 5.346887 " stroke="#000000" stroke-width="4" stroke-opacity="1" stroke-miterlimit="10"/></g><path stroke-linecap="butt" transform="matrix(0.351867, 0, 0, 0.351179, 3.198126, 2.704319)" fill="none" stroke-linejoin="miter" d="M 57.464506 33.499845 L 72.429337 33.499845 " stroke="#000000" stroke-width="4" stroke-opacity="1" stroke-miterlimit="10"/></svg>