<svg xmlns="http://www.w3.org/2000/svg" xmlns:xlink="http://www.w3.org/1999/xlink" width="70" zoomAndPan="magnify" viewBox="0 0 52.5 52.499999" height="70" preserveAspectRatio="xMidYMid meet" version="1.0"><defs><clipPath id="59b1a368ca"><path d="M 19 3.710938 L 33 3.710938 L 33 14 L 19 14 Z M 19 3.710938 " clip-rule="nonzero"/></clipPath><clipPath id="e8f96dc02c"><path d="M 3.132812 39.53125 L 49.171875 39.53125 L 49.171875 44.570312 L 3.132812 44.570312 Z M 3.132812 39.53125 " clip-rule="nonzero"/></clipPath></defs><path fill="#000000" d="M 14.191406 39.523438 L 38.113281 39.523438 L 39.171875 25.367188 C 39.179688 25.25 39.125 25.171875 39.089844 25.136719 C 39.054688 25.097656 38.980469 25.035156 38.863281 25.035156 L 13.441406 25.035156 C 13.324219 25.035156 13.25 25.097656 13.214844 25.136719 C 13.179688 25.171875 13.125 25.25 13.132812 25.367188 Z M 38.699219 40.789062 L 13.605469 40.789062 C 13.273438 40.789062 13 40.535156 12.972656 40.203125 L 11.875 25.464844 C 11.839844 25.027344 11.992188 24.59375 12.289062 24.273438 C 12.585938 23.953125 13.007812 23.769531 13.441406 23.769531 L 38.863281 23.769531 C 39.300781 23.769531 39.71875 23.953125 40.015625 24.273438 C 40.3125 24.59375 40.464844 25.027344 40.429688 25.464844 L 39.332031 40.203125 C 39.304688 40.535156 39.03125 40.789062 38.699219 40.789062 " fill-opacity="1" fill-rule="nonzero"/><path fill="#000000" d="M 26.152344 24.855469 C 25.960938 24.855469 25.78125 24.769531 25.660156 24.621094 L 23.164062 21.519531 C 23.074219 21.410156 23.023438 21.269531 23.023438 21.125 L 23.023438 18.90625 C 23.023438 18.554688 23.304688 18.273438 23.65625 18.273438 C 24.003906 18.273438 24.289062 18.554688 24.289062 18.90625 L 24.289062 20.902344 L 26.152344 23.214844 L 28.019531 20.902344 L 28.019531 18.90625 C 28.019531 18.554688 28.300781 18.273438 28.648438 18.273438 C 29 18.273438 29.28125 18.554688 29.28125 18.90625 L 29.28125 21.125 C 29.28125 21.269531 29.230469 21.410156 29.140625 21.519531 L 26.644531 24.621094 C 26.523438 24.769531 26.34375 24.855469 26.152344 24.855469 " fill-opacity="1" fill-rule="nonzero"/><g clip-path="url(#59b1a368ca)"><path fill="#000000" d="M 32.035156 13.160156 C 31.683594 13.160156 31.402344 12.878906 31.402344 12.527344 L 31.402344 10.230469 C 31.402344 7.34375 29.054688 4.984375 26.171875 4.972656 C 26.164062 4.972656 26.160156 4.972656 26.152344 4.972656 C 24.773438 4.972656 23.46875 5.519531 22.472656 6.511719 C 21.460938 7.523438 20.902344 8.859375 20.902344 10.277344 L 20.902344 12.527344 C 20.902344 12.878906 20.621094 13.160156 20.269531 13.160156 C 19.921875 13.160156 19.640625 12.878906 19.640625 12.527344 L 19.640625 10.277344 C 19.640625 9.390625 19.816406 8.527344 20.160156 7.710938 C 20.496094 6.925781 20.972656 6.222656 21.582031 5.613281 C 22.8125 4.386719 24.4375 3.710938 26.152344 3.710938 C 26.160156 3.710938 26.167969 3.710938 26.175781 3.710938 C 27.910156 3.714844 29.542969 4.394531 30.765625 5.625 C 31.992188 6.859375 32.667969 8.492188 32.667969 10.230469 L 32.667969 12.527344 C 32.667969 12.878906 32.382812 13.160156 32.035156 13.160156 " fill-opacity="1" fill-rule="nonzero"/></g><path fill="#000000" d="M 22.429688 12.003906 L 22.429688 15.324219 C 22.429688 17.378906 24.101562 19.050781 26.152344 19.050781 C 28.207031 19.050781 29.875 17.378906 29.875 15.324219 L 29.875 11.617188 L 28.675781 10.277344 C 26.773438 11.714844 23.753906 11.96875 22.429688 12.003906 Z M 26.152344 20.316406 C 23.402344 20.316406 21.167969 18.074219 21.167969 15.324219 L 21.167969 11.375 C 21.167969 11.207031 21.234375 11.042969 21.359375 10.921875 C 21.480469 10.804688 21.644531 10.738281 21.816406 10.746094 C 21.863281 10.746094 26.378906 10.855469 28.285156 8.945312 C 28.40625 8.824219 28.578125 8.757812 28.75 8.761719 C 28.921875 8.765625 29.085938 8.839844 29.203125 8.972656 L 30.976562 10.953125 C 31.082031 11.070312 31.140625 11.222656 31.140625 11.375 L 31.140625 15.324219 C 31.140625 18.074219 28.902344 20.316406 26.152344 20.316406 " fill-opacity="1" fill-rule="nonzero"/><path fill="#000000" d="M 21.167969 12.917969 C 20.65625 12.925781 20.242188 13.34375 20.242188 13.855469 C 20.242188 14.367188 20.65625 14.785156 21.167969 14.792969 Z M 21.796875 16.058594 L 21.179688 16.058594 C 19.964844 16.058594 18.980469 15.070312 18.980469 13.855469 C 18.980469 12.640625 19.964844 11.652344 21.179688 11.652344 L 21.796875 11.652344 C 22.148438 11.652344 22.429688 11.9375 22.429688 12.285156 L 22.429688 15.425781 C 22.429688 15.777344 22.148438 16.058594 21.796875 16.058594 " fill-opacity="1" fill-rule="nonzero"/><path fill="#000000" d="M 31.140625 12.917969 L 31.140625 14.792969 C 31.648438 14.785156 32.0625 14.367188 32.0625 13.855469 C 32.0625 13.34375 31.648438 12.925781 31.140625 12.917969 Z M 31.125 16.058594 L 30.507812 16.058594 C 30.15625 16.058594 29.875 15.777344 29.875 15.425781 L 29.875 12.285156 C 29.875 11.9375 30.15625 11.652344 30.507812 11.652344 L 31.125 11.652344 C 32.339844 11.652344 33.328125 12.640625 33.328125 13.855469 C 33.328125 15.070312 32.339844 16.058594 31.125 16.058594 " fill-opacity="1" fill-rule="nonzero"/><path fill="#000000" d="M 15.894531 25.035156 C 15.757812 25.035156 15.617188 24.992188 15.5 24.898438 C 15.226562 24.679688 15.183594 24.28125 15.402344 24.007812 C 16.105469 23.136719 17.039062 22.5 18.105469 22.171875 L 23.492188 20.503906 C 23.824219 20.402344 24.179688 20.589844 24.28125 20.925781 C 24.382812 21.257812 24.195312 21.613281 23.859375 21.714844 L 23.839844 21.722656 L 18.480469 23.378906 C 17.652344 23.636719 16.929688 24.128906 16.386719 24.800781 C 16.265625 24.957031 16.082031 25.035156 15.894531 25.035156 " fill-opacity="1" fill-rule="nonzero"/><path fill="#000000" d="M 36.410156 25.035156 C 36.222656 25.035156 36.042969 24.957031 35.917969 24.800781 C 35.375 24.128906 34.652344 23.636719 33.824219 23.378906 L 28.445312 21.714844 C 28.109375 21.613281 27.921875 21.257812 28.023438 20.925781 C 28.128906 20.589844 28.480469 20.402344 28.816406 20.503906 L 28.835938 20.511719 L 34.199219 22.171875 C 35.265625 22.5 36.203125 23.136719 36.902344 24.007812 C 37.121094 24.28125 37.078125 24.679688 36.804688 24.898438 C 36.6875 24.992188 36.546875 25.035156 36.410156 25.035156 " fill-opacity="1" fill-rule="nonzero"/><path fill="#000000" d="M 23.042969 35.386719 C 22.90625 35.386719 22.773438 35.34375 22.65625 35.253906 L 19.453125 32.78125 C 19.300781 32.660156 19.207031 32.476562 19.207031 32.28125 C 19.207031 32.085938 19.300781 31.898438 19.453125 31.78125 L 22.65625 29.304688 C 22.933594 29.09375 23.332031 29.144531 23.542969 29.421875 C 23.757812 29.699219 23.707031 30.09375 23.429688 30.308594 L 20.875 32.28125 L 23.429688 34.253906 C 23.707031 34.464844 23.757812 34.863281 23.542969 35.140625 C 23.417969 35.300781 23.230469 35.386719 23.042969 35.386719 " fill-opacity="1" fill-rule="nonzero"/><path fill="#000000" d="M 29.261719 35.386719 C 29.074219 35.386719 28.886719 35.300781 28.761719 35.140625 C 28.546875 34.863281 28.597656 34.464844 28.875 34.253906 L 31.429688 32.28125 L 28.875 30.308594 C 28.597656 30.09375 28.546875 29.699219 28.761719 29.421875 C 28.976562 29.144531 29.371094 29.09375 29.648438 29.304688 L 32.851562 31.78125 C 33.007812 31.898438 33.097656 32.085938 33.097656 32.28125 C 33.097656 32.476562 33.007812 32.660156 32.851562 32.78125 L 29.648438 35.253906 C 29.53125 35.34375 29.398438 35.386719 29.261719 35.386719 " fill-opacity="1" fill-rule="nonzero"/><path fill="#000000" d="M 24.988281 37.269531 C 24.933594 37.269531 24.878906 37.265625 24.824219 37.25 C 24.484375 37.160156 24.285156 36.8125 24.375 36.476562 L 26.707031 27.757812 C 26.800781 27.421875 27.144531 27.222656 27.484375 27.3125 C 27.820312 27.402344 28.019531 27.75 27.929688 28.085938 L 25.597656 36.800781 C 25.519531 37.085938 25.265625 37.269531 24.988281 37.269531 " fill-opacity="1" fill-rule="nonzero"/><g clip-path="url(#e8f96dc02c)"><path fill="#000000" d="M 4.398438 43.304688 L 47.910156 43.304688 C 47.867188 41.917969 46.730469 40.800781 45.332031 40.800781 L 6.972656 40.800781 C 5.578125 40.800781 4.4375 41.917969 4.398438 43.304688 Z M 48.542969 44.570312 L 3.761719 44.570312 C 3.414062 44.570312 3.132812 44.285156 3.132812 43.9375 L 3.132812 43.378906 C 3.132812 41.261719 4.855469 39.535156 6.972656 39.535156 L 45.332031 39.535156 C 47.449219 39.535156 49.171875 41.261719 49.171875 43.378906 L 49.171875 43.9375 C 49.171875 44.285156 48.890625 44.570312 48.542969 44.570312 " fill-opacity="1" fill-rule="nonzero"/></g></svg>