<svg xmlns="http://www.w3.org/2000/svg" xmlns:xlink="http://www.w3.org/1999/xlink" width="600" zoomAndPan="magnify" viewBox="0 0 450 299.999988" height="400" preserveAspectRatio="xMidYMid meet" version="1.0"><defs><clipPath id="72e9329b3f"><path d="M 108 29 L 335 29 L 335 280.925781 L 108 280.925781 Z M 108 29 " clip-rule="nonzero"/></clipPath></defs><g clip-path="url(#72e9329b3f)"><path fill="#ffffff" d="M 332.566406 265.394531 L 277.796875 192.976562 C 279.199219 191.453125 280.546875 189.890625 281.847656 188.28125 C 283.148438 186.675781 284.398438 185.027344 285.59375 183.339844 C 286.789062 181.65625 287.929688 179.933594 289.015625 178.171875 C 290.101562 176.414062 291.132812 174.621094 292.105469 172.796875 C 293.078125 170.972656 293.992188 169.121094 294.847656 167.238281 C 295.703125 165.355469 296.496094 163.445312 297.230469 161.515625 C 297.964844 159.582031 298.636719 157.628906 299.246094 155.652344 C 299.859375 153.675781 300.40625 151.683594 300.886719 149.671875 C 301.371094 147.664062 301.792969 145.640625 302.148438 143.601562 C 302.503906 141.566406 302.792969 139.519531 303.019531 137.464844 C 303.242188 135.410156 303.402344 133.347656 303.5 131.28125 C 303.59375 129.21875 303.621094 127.152344 303.585938 125.082031 C 303.550781 123.015625 303.449219 120.953125 303.28125 118.890625 C 303.113281 116.832031 302.878906 114.777344 302.582031 112.730469 C 302.285156 110.683594 301.921875 108.652344 301.496094 106.628906 C 301.070312 104.605469 300.578125 102.597656 300.023438 100.605469 C 299.46875 98.613281 298.851562 96.640625 298.171875 94.6875 C 297.496094 92.734375 296.753906 90.804688 295.953125 88.898438 C 295.148438 86.992188 294.289062 85.117188 293.367188 83.265625 C 292.445312 81.414062 291.46875 79.59375 290.429688 77.804688 C 289.394531 76.015625 288.300781 74.261719 287.15625 72.542969 C 286.007812 70.820312 284.804688 69.140625 283.550781 67.496094 C 282.296875 65.851562 280.992188 64.25 279.636719 62.691406 C 278.277344 61.128906 276.875 59.613281 275.421875 58.140625 C 273.96875 56.671875 272.472656 55.246094 270.929688 53.871094 C 269.386719 52.492188 267.800781 51.167969 266.175781 49.890625 C 264.546875 48.613281 262.882812 47.390625 261.175781 46.222656 C 259.472656 45.050781 257.734375 43.9375 255.957031 42.875 C 254.183594 41.816406 252.375 40.8125 250.535156 39.867188 C 248.695312 38.921875 246.832031 38.039062 244.933594 37.210938 C 243.039062 36.382812 241.121094 35.617188 239.175781 34.914062 C 237.234375 34.207031 235.269531 33.566406 233.285156 32.984375 C 231.300781 32.40625 229.296875 31.890625 227.28125 31.4375 C 225.265625 30.984375 223.234375 30.59375 221.191406 30.269531 C 219.152344 29.945312 217.101562 29.683594 215.042969 29.492188 C 212.984375 29.296875 210.921875 29.167969 208.855469 29.105469 C 206.789062 29.039062 204.722656 29.042969 202.65625 29.109375 C 200.585938 29.179688 198.527344 29.3125 196.46875 29.507812 C 194.410156 29.707031 192.359375 29.972656 190.320312 30.300781 C 188.277344 30.628906 186.25 31.023438 184.230469 31.480469 C 182.214844 31.9375 180.214844 32.457031 178.230469 33.042969 C 176.25 33.625 174.285156 34.273438 172.34375 34.980469 C 170.402344 35.691406 168.484375 36.460938 166.589844 37.289062 C 164.695312 38.121094 162.832031 39.011719 160.996094 39.960938 C 159.15625 40.90625 157.351562 41.914062 155.578125 42.976562 C 153.804688 44.042969 152.066406 45.160156 150.367188 46.332031 C 148.664062 47.507812 147 48.734375 145.375 50.011719 C 143.75 51.292969 142.167969 52.621094 140.628906 54 C 139.089844 55.378906 137.59375 56.808594 136.144531 58.28125 C 134.695312 59.757812 133.292969 61.277344 131.941406 62.839844 C 130.589844 64.402344 129.285156 66.007812 128.035156 67.652344 C 126.785156 69.300781 125.585938 70.984375 124.441406 72.707031 C 123.296875 74.425781 122.207031 76.183594 121.175781 77.976562 C 120.144531 79.765625 119.167969 81.589844 118.25 83.441406 C 117.332031 85.292969 116.476562 87.175781 115.675781 89.082031 C 114.878906 90.988281 114.144531 92.921875 113.46875 94.875 C 112.792969 96.828125 112.179688 98.800781 111.628906 100.796875 C 111.078125 102.789062 110.59375 104.796875 110.167969 106.820312 C 109.746094 108.84375 109.390625 110.878906 109.09375 112.925781 C 108.800781 114.972656 108.574219 117.027344 108.410156 119.089844 C 108.246094 121.148438 108.148438 123.214844 108.117188 125.28125 C 108.085938 127.347656 108.117188 129.414062 108.21875 131.480469 C 108.316406 133.546875 108.480469 135.605469 108.710938 137.660156 C 108.9375 139.714844 109.234375 141.761719 109.59375 143.796875 C 109.953125 145.832031 110.375 147.855469 110.863281 149.863281 C 111.351562 151.875 111.902344 153.867188 112.515625 155.839844 C 113.128906 157.816406 113.808594 159.765625 114.542969 161.699219 C 115.28125 163.628906 116.082031 165.535156 116.941406 167.417969 C 117.800781 169.296875 118.71875 171.148438 119.695312 172.972656 C 120.671875 174.792969 121.703125 176.582031 122.792969 178.339844 C 123.882812 180.097656 125.027344 181.820312 126.226562 183.503906 C 127.425781 185.1875 128.679688 186.832031 129.980469 188.4375 C 131.285156 190.042969 132.640625 191.601562 134.042969 193.121094 C 135.445312 194.640625 136.894531 196.113281 138.390625 197.542969 C 139.886719 198.96875 141.425781 200.347656 143.011719 201.675781 C 144.59375 203.003906 146.21875 204.28125 147.882812 205.507812 C 149.546875 206.734375 151.25 207.90625 152.988281 209.027344 C 154.726562 210.144531 156.5 211.207031 158.308594 212.210938 C 160.113281 213.21875 161.949219 214.164062 163.816406 215.054688 C 165.683594 215.941406 167.578125 216.773438 169.496094 217.539062 C 171.414062 218.308594 173.355469 219.015625 175.320312 219.664062 C 177.285156 220.308594 179.269531 220.890625 181.269531 221.410156 C 183.269531 221.933594 185.285156 222.386719 187.316406 222.78125 C 189.347656 223.171875 191.386719 223.5 193.4375 223.761719 C 195.488281 224.023438 197.546875 224.222656 199.609375 224.355469 C 201.671875 224.488281 203.738281 224.554688 205.804688 224.554688 C 207.871094 224.554688 209.9375 224.492188 212 224.359375 C 214.066406 224.230469 216.121094 224.035156 218.171875 223.773438 C 220.226562 223.515625 222.265625 223.1875 224.296875 222.796875 C 226.328125 222.40625 228.34375 221.953125 230.34375 221.4375 C 232.347656 220.917969 234.328125 220.335938 236.292969 219.691406 C 238.257812 219.050781 240.203125 218.34375 242.121094 217.578125 C 244.042969 216.808594 245.933594 215.980469 247.800781 215.09375 C 249.671875 214.207031 251.507812 213.261719 253.316406 212.257812 C 255.121094 211.253906 256.898438 210.195312 258.636719 209.078125 C 260.378906 207.960938 262.082031 206.789062 263.746094 205.566406 L 317.574219 276.753906 C 317.945312 277.25 318.367188 277.703125 318.828125 278.117188 C 319.292969 278.53125 319.792969 278.894531 320.328125 279.210938 C 320.863281 279.523438 321.421875 279.785156 322.011719 279.988281 C 322.597656 280.191406 323.195312 280.335938 323.8125 280.421875 C 324.425781 280.507812 325.042969 280.535156 325.664062 280.5 C 326.285156 280.464844 326.894531 280.367188 327.496094 280.210938 C 328.097656 280.054688 328.675781 279.84375 329.234375 279.574219 C 329.792969 279.300781 330.320312 278.980469 330.816406 278.605469 C 331.3125 278.230469 331.769531 277.8125 332.179688 277.351562 C 332.59375 276.886719 332.957031 276.386719 333.273438 275.851562 C 333.585938 275.316406 333.847656 274.757812 334.050781 274.167969 C 334.257812 273.582031 334.402344 272.984375 334.488281 272.367188 C 334.574219 271.753906 334.597656 271.136719 334.5625 270.515625 C 334.527344 269.894531 334.429688 269.285156 334.277344 268.683594 C 334.121094 268.082031 333.90625 267.503906 333.636719 266.945312 C 333.367188 266.382812 333.042969 265.855469 332.671875 265.363281 Z M 123.945312 126.792969 C 123.945312 125.453125 123.980469 124.113281 124.046875 122.773438 C 124.109375 121.433594 124.210938 120.097656 124.339844 118.761719 C 124.472656 117.425781 124.636719 116.097656 124.832031 114.769531 C 125.027344 113.445312 125.257812 112.125 125.519531 110.808594 C 125.78125 109.492188 126.074219 108.183594 126.398438 106.882812 C 126.726562 105.582031 127.082031 104.292969 127.472656 103.007812 C 127.859375 101.726562 128.28125 100.453125 128.734375 99.1875 C 129.183594 97.925781 129.667969 96.675781 130.179688 95.4375 C 130.691406 94.199219 131.234375 92.972656 131.808594 91.761719 C 132.382812 90.546875 132.984375 89.351562 133.617188 88.167969 C 134.25 86.984375 134.910156 85.820312 135.597656 84.667969 C 136.289062 83.519531 137.003906 82.386719 137.75 81.269531 C 138.496094 80.15625 139.265625 79.058594 140.066406 77.980469 C 140.863281 76.90625 141.6875 75.847656 142.539062 74.8125 C 143.390625 73.773438 144.265625 72.761719 145.164062 71.765625 C 146.066406 70.773438 146.992188 69.800781 147.9375 68.851562 C 148.886719 67.90625 149.855469 66.980469 150.851562 66.078125 C 151.84375 65.179688 152.859375 64.304688 153.894531 63.453125 C 154.933594 62.601562 155.988281 61.777344 157.066406 60.976562 C 158.144531 60.179688 159.238281 59.40625 160.355469 58.664062 C 161.46875 57.917969 162.601562 57.199219 163.75 56.511719 C 164.902344 55.820312 166.066406 55.160156 167.25 54.527344 C 168.433594 53.894531 169.628906 53.292969 170.84375 52.71875 C 172.054688 52.144531 173.28125 51.601562 174.519531 51.089844 C 175.757812 50.578125 177.007812 50.09375 178.269531 49.640625 C 179.535156 49.191406 180.804688 48.769531 182.089844 48.378906 C 183.371094 47.992188 184.664062 47.632812 185.964844 47.308594 C 187.265625 46.980469 188.574219 46.6875 189.890625 46.425781 C 191.203125 46.164062 192.523438 45.933594 193.851562 45.738281 C 195.179688 45.542969 196.507812 45.378906 197.84375 45.246094 C 199.175781 45.113281 200.515625 45.015625 201.851562 44.949219 C 203.191406 44.882812 204.53125 44.851562 205.875 44.851562 C 207.214844 44.851562 208.554688 44.882812 209.894531 44.949219 C 211.234375 45.015625 212.570312 45.113281 213.90625 45.246094 C 215.238281 45.375 216.570312 45.539062 217.894531 45.738281 C 219.222656 45.933594 220.542969 46.164062 221.859375 46.425781 C 223.175781 46.6875 224.480469 46.980469 225.78125 47.304688 C 227.082031 47.632812 228.375 47.988281 229.660156 48.378906 C 230.941406 48.765625 232.214844 49.1875 233.476562 49.640625 C 234.738281 50.089844 235.992188 50.574219 237.230469 51.085938 C 238.46875 51.601562 239.695312 52.144531 240.90625 52.714844 C 242.117188 53.289062 243.316406 53.890625 244.5 54.523438 C 245.679688 55.15625 246.847656 55.816406 247.996094 56.507812 C 249.148438 57.195312 250.28125 57.914062 251.394531 58.65625 C 252.511719 59.402344 253.605469 60.175781 254.683594 60.972656 C 255.761719 61.773438 256.816406 62.597656 257.855469 63.449219 C 258.890625 64.296875 259.90625 65.175781 260.898438 66.074219 C 261.890625 66.976562 262.863281 67.898438 263.8125 68.847656 C 264.761719 69.796875 265.683594 70.765625 266.585938 71.761719 C 267.484375 72.753906 268.359375 73.769531 269.210938 74.804688 C 270.0625 75.84375 270.886719 76.898438 271.6875 77.976562 C 272.484375 79.054688 273.257812 80.148438 274 81.265625 C 274.746094 82.378906 275.464844 83.511719 276.152344 84.660156 C 276.84375 85.8125 277.503906 86.976562 278.136719 88.160156 C 278.765625 89.34375 279.371094 90.542969 279.941406 91.753906 C 280.515625 92.964844 281.058594 94.191406 281.574219 95.429688 C 282.085938 96.667969 282.566406 97.917969 283.019531 99.183594 C 283.472656 100.445312 283.890625 101.71875 284.28125 103 C 284.671875 104.285156 285.027344 105.574219 285.355469 106.875 C 285.679688 108.175781 285.972656 109.484375 286.234375 110.800781 C 286.496094 112.117188 286.726562 113.4375 286.921875 114.761719 C 287.117188 116.089844 287.28125 117.421875 287.414062 118.753906 C 287.546875 120.089844 287.644531 121.425781 287.710938 122.765625 C 287.777344 124.105469 287.808594 125.445312 287.808594 126.785156 C 287.808594 128.125 287.777344 129.464844 287.710938 130.804688 C 287.644531 132.144531 287.546875 133.480469 287.414062 134.816406 C 287.28125 136.152344 287.117188 137.480469 286.921875 138.808594 C 286.722656 140.132812 286.496094 141.457031 286.234375 142.769531 C 285.972656 144.085938 285.679688 145.394531 285.351562 146.695312 C 285.027344 147.996094 284.667969 149.285156 284.277344 150.570312 C 283.890625 151.851562 283.46875 153.125 283.015625 154.386719 C 282.566406 155.652344 282.082031 156.902344 281.570312 158.140625 C 281.054688 159.378906 280.511719 160.605469 279.941406 161.816406 C 279.367188 163.03125 278.761719 164.226562 278.132812 165.410156 C 277.5 166.59375 276.839844 167.757812 276.148438 168.910156 C 275.460938 170.058594 274.742188 171.191406 273.996094 172.304688 C 273.25 173.421875 272.480469 174.515625 271.679688 175.59375 C 270.882812 176.671875 270.058594 177.726562 269.207031 178.765625 C 268.355469 179.800781 267.480469 180.816406 266.578125 181.808594 C 265.679688 182.800781 264.753906 183.773438 263.804688 184.722656 C 262.859375 185.667969 261.886719 186.59375 260.894531 187.492188 C 259.898438 188.394531 258.882812 189.269531 257.847656 190.121094 C 256.8125 190.972656 255.753906 191.796875 254.675781 192.59375 C 253.601562 193.394531 252.503906 194.164062 251.390625 194.910156 C 250.273438 195.65625 249.140625 196.371094 247.992188 197.0625 C 246.839844 197.75 245.675781 198.410156 244.492188 199.042969 C 243.308594 199.675781 242.113281 200.277344 240.898438 200.851562 C 239.6875 201.421875 238.460938 201.964844 237.222656 202.480469 C 235.984375 202.992188 234.734375 203.476562 233.46875 203.925781 C 232.207031 204.378906 230.933594 204.796875 229.652344 205.1875 C 228.367188 205.578125 227.074219 205.933594 225.773438 206.261719 C 224.472656 206.585938 223.167969 206.878906 221.851562 207.140625 C 220.535156 207.402344 219.214844 207.628906 217.890625 207.828125 C 216.5625 208.023438 215.230469 208.1875 213.898438 208.320312 C 212.5625 208.449219 211.226562 208.550781 209.886719 208.613281 C 208.546875 208.679688 207.207031 208.710938 205.867188 208.710938 C 204.527344 208.710938 203.1875 208.679688 201.847656 208.613281 C 200.507812 208.546875 199.171875 208.449219 197.835938 208.316406 C 196.503906 208.183594 195.171875 208.019531 193.847656 207.824219 C 192.519531 207.628906 191.199219 207.398438 189.886719 207.136719 C 188.570312 206.875 187.261719 206.582031 185.960938 206.253906 C 184.660156 205.929688 183.371094 205.570312 182.085938 205.183594 C 180.804688 204.792969 179.53125 204.371094 178.269531 203.921875 C 177.007812 203.46875 175.757812 202.988281 174.519531 202.472656 C 173.28125 201.960938 172.054688 201.417969 170.84375 200.84375 C 169.632812 200.269531 168.433594 199.667969 167.25 199.035156 C 166.070312 198.402344 164.902344 197.742188 163.753906 197.054688 C 162.605469 196.363281 161.472656 195.648438 160.355469 194.902344 C 159.242188 194.160156 158.148438 193.386719 157.070312 192.589844 C 155.992188 191.789062 154.9375 190.964844 153.898438 190.113281 C 152.863281 189.265625 151.847656 188.386719 150.855469 187.488281 C 149.863281 186.585938 148.890625 185.664062 147.945312 184.714844 C 146.996094 183.769531 146.070312 182.796875 145.171875 181.804688 C 144.269531 180.808594 143.394531 179.796875 142.546875 178.757812 C 141.695312 177.722656 140.871094 176.667969 140.070312 175.589844 C 139.273438 174.511719 138.5 173.417969 137.757812 172.300781 C 137.011719 171.1875 136.292969 170.054688 135.605469 168.90625 C 134.914062 167.753906 134.253906 166.589844 133.625 165.40625 C 132.992188 164.226562 132.386719 163.027344 131.816406 161.816406 C 131.242188 160.605469 130.699219 159.378906 130.1875 158.140625 C 129.671875 156.902344 129.191406 155.652344 128.738281 154.390625 C 128.285156 153.128906 127.867188 151.855469 127.476562 150.570312 C 127.085938 149.289062 126.730469 147.996094 126.402344 146.695312 C 126.078125 145.398438 125.785156 144.089844 125.523438 142.773438 C 125.261719 141.460938 125.03125 140.140625 124.835938 138.8125 C 124.636719 137.488281 124.472656 136.15625 124.34375 134.824219 C 124.210938 133.488281 124.113281 132.152344 124.046875 130.8125 C 123.980469 129.472656 123.945312 128.132812 123.945312 126.792969 Z M 123.945312 126.792969 " fill-opacity="1" fill-rule="nonzero"/></g></svg>